<svg xmlns="http://www.w3.org/2000/svg" version="1.1" xmlns:xlink="http://www.w3.org/1999/xlink" xmlns:svgjs="http://svgjs.com/svgjs" width="230px" height="260px"><svg xmlns="http://www.w3.org/2000/svg" version="1.1" width="230px" height="260px" style="shape-rendering:geometricPrecision; text-rendering:geometricPrecision; image-rendering:optimizeQuality; fill-rule:evenodd; clip-rule:evenodd" xmlns:xlink="http://www.w3.org/1999/xlink">
<g><path fill="#520972" d="M 128.5,49.5 C 123.864,57.6511 117.864,64.8178 110.5,71C 86.2217,90.4788 59.2217,105.312 29.5,115.5C 42.6382,128.175 52.4716,143.175 59,160.5C 71.1626,188.32 80.496,216.986 87,246.5C 75.5735,215.315 62.2402,184.982 47,155.5C 41.1178,144.956 34.4512,134.956 27,125.5C 22.8333,122 18.6667,118.5 14.5,115C 43.0412,101.45 68.5412,83.6163 91,61.5C 97.0966,54.9662 101.93,47.6329 105.5,39.5C 110.866,30.2381 114.366,20.2381 116,9.5C 120.274,22.8206 124.441,36.1539 128.5,49.5 Z"></path></g>
<g><path fill="#c8102e" d="M 105.5,39.5 C 101.93,47.6329 97.0966,54.9662 91,61.5C 68.5412,83.6163 43.0412,101.45 14.5,115C 18.6667,118.5 22.8333,122 27,125.5C 34.4512,134.956 41.1178,144.956 47,155.5C 62.2402,184.982 75.5735,215.315 87,246.5C 80.496,216.986 71.1626,188.32 59,160.5C 52.4716,143.175 42.6382,128.175 29.5,115.5C 59.2217,105.312 86.2217,90.4788 110.5,71C 117.864,64.8178 123.864,57.6511 128.5,49.5C 134.532,41.0944 138.699,31.7611 141,21.5C 143.794,35.6363 146.627,49.6363 149.5,63.5C 149.631,64.2389 149.464,64.9056 149,65.5C 130.344,83.1252 108.844,96.2919 84.5,105C 71.2488,109.479 57.9154,113.645 44.5,117.5C 52.1054,125.288 57.9387,134.288 62,144.5C 75.8906,181.396 85.3906,219.396 90.5,258.5C 76.2751,226.718 60.4418,195.718 43,165.5C 34.0746,150.233 23.2413,136.4 10.5,124C 7.14032,121.454 3.47365,119.621 -0.5,118.5C -0.5,117.833 -0.5,117.167 -0.5,116.5C 24.6273,101.495 46.794,82.8287 66,60.5C 76.2395,47.6883 83.5728,33.355 88,17.5C 88.9664,11.8702 89.6331,6.20357 90,0.5C 95.2743,13.496 100.441,26.496 105.5,39.5 Z"></path></g>
<g><path fill="#00b2a9" d="M 189.5,99.5 C 177.779,108.036 164.779,114.202 150.5,118C 125.888,124.202 100.888,127.535 75.5,128C 80.3173,134.09 83.8173,140.923 86,148.5C 92.5248,181.236 94.1915,214.236 91,247.5C 89.092,217.477 84.7587,187.811 78,158.5C 75.5306,150.758 72.8639,143.092 70,135.5C 67.4551,130.239 64.2884,125.406 60.5,121C 93.1762,117.107 124.176,107.773 153.5,93C 159.93,89.397 165.597,84.897 170.5,79.5C 178.664,72.4985 185.164,64.1652 190,54.5C 189.772,69.4864 189.605,84.4864 189.5,99.5 Z"></path></g>
<g><path fill="#090304" d="M 170.5,79.5 C 165.597,84.897 159.93,89.397 153.5,93C 124.176,107.773 93.1762,117.107 60.5,121C 64.2884,125.406 67.4551,130.239 70,135.5C 72.8639,143.092 75.5306,150.758 78,158.5C 84.7587,187.811 89.092,217.477 91,247.5C 94.1915,214.236 92.5248,181.236 86,148.5C 83.8173,140.923 80.3173,134.09 75.5,128C 100.888,127.535 125.888,124.202 150.5,118C 164.779,114.202 177.779,108.036 189.5,99.5C 199.587,93.3588 207.421,85.0255 213,74.5C 207.249,116.597 203.749,158.931 202.5,201.5C 202.958,212.198 203.791,222.865 205,233.5C 206.203,240.625 209.036,246.958 213.5,252.5C 172.554,255.437 131.554,257.437 90.5,258.5C 85.3906,219.396 75.8906,181.396 62,144.5C 57.9387,134.288 52.1054,125.288 44.5,117.5C 57.9154,113.645 71.2488,109.479 84.5,105C 108.844,96.2919 130.344,83.1252 149,65.5C 149.464,64.9056 149.631,64.2389 149.5,63.5C 157.268,55.6487 162.768,46.3154 166,35.5C 167.414,50.229 168.914,64.8957 170.5,79.5 Z"></path></g>
</svg><style>@media (prefers-color-scheme: light) { :root { filter: none; } }
</style></svg>