<svg width="700pt" height="700pt" version="1.1" viewBox="0 0 700 700" xmlns="http://www.w3.org/2000/svg" xmlns:xlink="http://www.w3.org/1999/xlink">
 <g>
  <path d="m450.24 280 145.04-145.04c27.441-27.441 27.441-72.238 0-100.24-27.441-27.441-72.238-27.441-100.24 0l-145.04 145.04-145.04-145.04c-27.441-27.441-72.238-27.441-100.24 0-27.441 27.441-27.441 72.238 0 100.24l145.04 145.04-145.04 145.04c-27.441 27.441-27.441 72.238 0 100.24 14 14 31.922 20.719 49.84 20.719 17.922 0 36.398-6.7188 49.84-20.719l145.6-145.04 145.04 145.04c14 14 31.922 20.719 49.84 20.719 17.922 0 36.398-6.7188 49.84-20.719 27.441-27.441 27.441-72.238 0-100.24z"/>
 </g>
</svg>
