<svg width="622pt" height="622pt" version="1.1" viewBox="0 0 622 622" xmlns="http://www.w3.org/2000/svg" xmlns:xlink="http://www.w3.org/1999/xlink">
 <g>
  <path d="m350 46.668c-61.883 0-121.23 24.582-164.99 68.34-43.758 43.758-68.34 103.11-68.34 164.99s24.582 121.23 68.34 164.99c43.758 43.758 103.11 68.34 164.99 68.34s121.23-24.582 164.99-68.34c43.758-43.758 68.34-103.11 68.34-164.99 0-40.957-10.781-81.195-31.258-116.67-20.48-35.469-49.938-64.926-85.406-85.406-35.473-20.477-75.711-31.258-116.67-31.258zm0 431.67v-0.003907c-52.602 0-103.05-20.895-140.24-58.09-37.195-37.195-58.09-87.641-58.09-140.24s20.895-103.05 58.09-140.24c37.195-37.195 87.641-58.09 140.24-58.09s103.05 20.895 140.24 58.09c37.195 37.195 58.09 87.641 58.09 140.24s-20.895 103.05-58.09 140.24c-37.195 37.195-87.641 58.09-140.24 58.09z"/>
  <path d="m350 268.33c-6.1875 0-12.125 2.4609-16.5 6.8359s-6.832 10.309-6.832 16.5v81.668-0.003907c0 8.3359 4.4453 16.039 11.664 20.207 7.2188 4.168 16.117 4.168 23.336 0 7.2188-4.168 11.664-11.871 11.664-20.207v-81.664c0-6.1914-2.457-12.125-6.832-16.5s-10.312-6.8359-16.5-6.8359z"/>
  <path d="m350 163.33c-9.2812 0-18.184 3.6875-24.75 10.254-6.5625 6.5625-10.25 15.465-10.25 24.746 0 9.2852 3.6875 18.188 10.25 24.75 6.5664 6.5625 15.469 10.25 24.75 10.25s18.184-3.6875 24.75-10.25c6.5625-6.5625 10.25-15.465 10.25-24.75 0-9.2812-3.6875-18.184-10.25-24.746-6.5664-6.5664-15.469-10.254-24.75-10.254z"/>
 </g>
</svg>
