<svg xmlns="http://www.w3.org/2000/svg" xmlns:xlink="http://www.w3.org/1999/xlink" version="1.1" x="0px" y="0px" viewBox="0 0 512 512" enable-background="new 0 0 512 512" xml:space="preserve"><path d="M466.902,251.273L259.416,131.455L52.036,11.742c-1.856-1.072-4.143-1.072-6,0s-3,3.053-3,5.196v479.061  c0,2.144,1.144,4.124,3,5.196c0.928,0.536,1.964,0.804,3,0.804c1.036,0,2.072-0.268,3-0.804l207.38-119.712l207.486-119.818  c1.856-1.072,3-3.053,3-5.196S468.759,252.345,466.902,251.273z M253.417,371.091L55.036,485.607V27.33l198.379,114.517  l198.489,114.622L253.417,371.091z"/></svg>